<svg width="117" height="74" viewBox="0 0 117 74" fill="none" xmlns="http://www.w3.org/2000/svg">
<path d="M43.4602 37.6732C43.4602 50.2841 49.5366 61.4366 58.7883 68.127C67.9852 61.335 73.9999 50.1539 73.9999 37.5015C73.9999 24.9557 68.0881 13.8561 59.0216 7.04759C49.6326 13.718 43.4602 24.9564 43.4602 37.6732Z" fill="#F0D6C2"/>
<path d="M37.5718 37.1694C37.5718 23.6891 44.0354 11.6906 54.0317 4.07855C48.9557 1.47695 43.2001 0 37.1046 0C16.6115 0 0 16.5655 0 37C0 57.4344 16.6115 74 37.1046 74C43.101 74 48.7575 72.5731 53.7699 70.0547C43.9222 62.4336 37.5718 50.5311 37.5718 37.1694Z" fill="#F0D6C2"/>
<path d="M79.8729 6.28049C62.6148 6.28049 48.569 20.3252 48.569 37.5873C48.569 54.8507 62.6148 68.8941 79.8729 68.8941C97.1382 68.8941 111.184 54.8507 111.184 37.5873C111.184 20.3252 97.1382 6.28049 79.8729 6.28049ZM79.8729 74C59.7985 74 43.4602 57.6655 43.4602 37.5873C43.4602 17.509 59.7985 1.17461 79.8729 1.17461C99.9544 1.17461 116.286 17.509 116.286 37.5873C116.286 57.6655 99.9544 74 79.8729 74Z" fill="white"/>
</svg>
